<svg width="75" height="75" viewBox="0 0 75 75" fill="none" xmlns="http://www.w3.org/2000/svg">
<g clip-path="url(#clip0_712_674)">
<path d="M75.2505 37.5495C75.2505 34.1278 75.2737 30.7061 75.2467 27.2844C75.2081 22.7542 75.046 18.2318 74.2162 13.7593C72.8423 6.32322 69.4962 2.68599 62.0823 1.25419C58.4082 0.545993 54.6182 0.211137 50.8708 0.126461C42.9397 -0.0544382 35.001 -0.000553342 27.07 0.0417847C22.0605 0.0725761 17.0549 0.268871 12.1419 1.42355C6.50716 2.74757 2.77128 6.08074 1.58259 11.781C0.868603 15.2104 0.336008 18.7283 0.227945 22.2231C-0.0151963 30.2712 -0.0151963 38.3231 0.0118194 46.3712C0.0272569 51.5326 0.185492 56.694 1.15806 61.7977C2.3699 68.133 5.83949 72.3706 12.3117 73.6369C15.6616 74.2913 19.0965 74.7839 22.5004 74.8532C31.6433 75.0379 40.7862 74.9956 49.9329 74.9725C54.2709 74.961 58.5934 74.6608 62.8542 73.7139C68.7436 72.4053 72.5528 68.9451 73.8071 62.9985C74.3783 60.285 74.8376 57.5138 74.9688 54.7503C75.2428 49.0231 75.127 43.2844 75.2544 37.5533C75.2081 37.5533 75.3007 37.5533 75.2544 37.5533L75.2505 37.5495ZM47.0693 60.489L28.2239 66.3086V48.5805C28.2239 37.9806 28.2239 27.3768 28.2008 16.773C28.2008 16.6345 28.2046 16.5113 28.2239 16.3958V14.8871L45.2708 9.96814C45.5371 9.87962 45.8073 9.79109 46.0774 9.70257C46.3553 9.61019 46.6409 9.54476 47.0577 9.43699V10.5301C47.0577 26.4685 47.0538 42.403 47.0731 58.3413V60.4929L47.0693 60.489Z" fill="url(#paint0_linear_712_674)"/>
</g>
<defs>
<linearGradient id="paint0_linear_712_674" x1="82.537" y1="-7.25576" x2="7.15626" y2="68.33" gradientUnits="userSpaceOnUse">
<stop offset="0.32" stop-color="#CCA4FF"/>
<stop offset="1" stop-color="#02BBFF"/>
</linearGradient>
<clipPath id="clip0_712_674">
<rect width="75" height="75" fill="white"/>
</clipPath>
</defs>
</svg>
